<svg xmlns="http://www.w3.org/2000/svg" xmlns:xlink="http://www.w3.org/1999/xlink" version="1.1" width="256" height="256" viewBox="0 0 256 256" xml:space="preserve">

<defs>
</defs>
<g style="stroke: none; stroke-width: 0; stroke-dasharray: none; stroke-linecap: butt; stroke-linejoin: miter; stroke-miterlimit: 10; fill: none; fill-rule: nonzero; opacity: 1;" transform="translate(1.4065934065934016 1.4065934065934016) scale(2.81 2.81)" >
	<path d="M 45 0 c -5.019 30.769 -5.291 60.811 0 90 c 24.853 0 45 -20.147 45 -45 C 90 20.147 69.853 0 45 0 z" style="stroke: none; stroke-width: 1; stroke-dasharray: none; stroke-linecap: butt; stroke-linejoin: miter; stroke-miterlimit: 10; fill: rgb(217,171,57); fill-rule: nonzero; opacity: 1;" transform=" matrix(1 0 0 1 0 0) " stroke-linecap="round" />
	<path d="M 45 0 v 90 C 20.147 90 0 69.853 0 45 C 0 20.147 20.147 0 45 0 z" style="stroke: none; stroke-width: 1; stroke-dasharray: none; stroke-linecap: butt; stroke-linejoin: miter; stroke-miterlimit: 10; fill: rgb(221,178,69); fill-rule: nonzero; opacity: 1;" transform=" matrix(1 0 0 1 0 0) " stroke-linecap="round" />
	<path d="M 72.875 39.44 c 0 -4.731 -1.681 -8.597 -4.46 -11.631 c 0.45 -1.092 1.933 -5.499 -0.425 -11.468 c 0 0 -3.633 -1.164 -11.905 4.443 c -3.463 -0.96 -7.173 -1.442 -10.856 -1.459 c -0.076 0 -0.153 0.008 -0.229 0.008 C 42.149 43.866 41.889 67.511 45 90 c 3.792 0 7.471 -0.474 10.989 -1.357 c 0.015 -5.485 0.038 -15.83 0.038 -19.797 c 0 -4.043 -1.385 -6.68 -2.939 -8.025 C 62.737 59.748 72.875 56.084 72.875 39.44 z" style="stroke: none; stroke-width: 1; stroke-dasharray: none; stroke-linecap: butt; stroke-linejoin: miter; stroke-miterlimit: 10; fill: rgb(76,71,39); fill-rule: nonzero; opacity: 1;" transform=" matrix(1 0 0 1 0 0) " stroke-linecap="round" />
	<path d="M 45 19.333 c -3.607 0.035 -7.232 0.51 -10.617 1.45 c -8.28 -5.607 -11.919 -4.443 -11.919 -4.443 c -2.353 5.969 -0.87 10.376 -0.42 11.468 c -2.772 3.035 -4.465 6.9 -4.465 11.631 c 0 16.604 10.118 20.32 19.743 21.415 c -1.24 1.082 -2.362 2.994 -2.751 5.795 c -2.473 1.107 -8.746 3.022 -12.61 -3.602 c 0 0 -2.292 -4.161 -6.643 -4.466 c 0 0 -4.228 -0.055 -0.296 2.634 c 0 0 2.84 1.332 4.811 6.341 c 0 0 2.544 7.734 14.599 5.113 c 0.012 2.331 0.033 11.162 0.046 16.081 C 37.855 89.56 41.375 90 45 90 V 19.333 z" style="stroke: none; stroke-width: 1; stroke-dasharray: none; stroke-linecap: butt; stroke-linejoin: miter; stroke-miterlimit: 10; fill: rgb(91,85,53); fill-rule: nonzero; opacity: 1;" transform=" matrix(1 0 0 1 0 0) " stroke-linecap="round" />
</g>
</svg>